<svg width="28" height="28" viewBox="0 0 28 28" fill="none" xmlns="http://www.w3.org/2000/svg">
<path d="M18.1727 3.94567L20.506 5.17015C23.0163 6.48748 24.2714 7.14615 24.9684 8.32974C25.6654 9.51333 25.6654 10.9862 25.6654 13.9318V14.0683C25.6654 17.0139 25.6654 18.4868 24.9684 19.6703C24.2714 20.8539 23.0163 21.5126 20.506 22.8299L18.1727 24.0544C16.1245 25.1293 15.1003 25.6667 13.9987 25.6667C12.897 25.6667 11.8729 25.1293 9.82471 24.0544L7.49137 22.8299C4.9811 21.5126 3.72596 20.8539 3.02899 19.6703C2.33203 18.4868 2.33203 17.0139 2.33203 14.0683V13.9318C2.33203 10.9862 2.33203 9.51333 3.02899 8.32974C3.72596 7.14615 4.9811 6.48748 7.49137 5.17014L9.82471 3.94567C11.8729 2.87081 12.897 2.33337 13.9987 2.33337C15.1003 2.33337 16.1245 2.87081 18.1727 3.94567Z" stroke="white" stroke-width="1.5" stroke-linecap="round"/>
<path d="M24.5 8.75L19.8333 11.0833M14 14L3.5 8.75M14 14V25.0833M14 14C14 14 17.1997 12.4001 19.25 11.375C19.4778 11.2611 19.8333 11.0833 19.8333 11.0833M19.8333 11.0833V15.1667M19.8333 11.0833L8.75 5.25" stroke="white" stroke-width="1.5" stroke-linecap="round"/>
</svg>
