<svg width="148" height="20" viewBox="0 0 148 20" fill="none" xmlns="http://www.w3.org/2000/svg">
<path d="M2.5 12.5C2.5 14.857 2.5 16.0355 3.23223 16.7678C3.96447 17.5 5.14298 17.5 7.5 17.5H12.5C14.857 17.5 16.0355 17.5 16.7678 16.7678C17.5 16.0355 17.5 14.857 17.5 12.5" stroke="#3873C3" stroke-width="1.5" stroke-linecap="round" stroke-linejoin="round"/>
<path d="M10.0013 2.49998V13.3333M10.0013 13.3333L13.3346 9.68748M10.0013 13.3333L6.66797 9.68748" stroke="#3873C3" stroke-width="1.5" stroke-linecap="round" stroke-linejoin="round"/>
<path d="M37.712 4.8H39.312V16H37.712V4.8ZM31.28 16H29.68V4.8H31.28V16ZM37.856 11.008H31.12V9.616H37.856V11.008ZM47.7044 16V14.208L47.6244 13.872V10.816C47.6244 10.1653 47.4324 9.664 47.0484 9.312C46.675 8.94933 46.1097 8.768 45.3524 8.768C44.851 8.768 44.3604 8.85333 43.8804 9.024C43.4004 9.184 42.995 9.40267 42.6644 9.68L42.0244 8.528C42.4617 8.176 42.9844 7.90933 43.5924 7.728C44.211 7.536 44.8564 7.44 45.5284 7.44C46.691 7.44 47.587 7.72267 48.2164 8.288C48.8457 8.85333 49.1604 9.71733 49.1604 10.88V16H47.7044ZM44.9204 16.096C44.291 16.096 43.7364 15.9893 43.2564 15.776C42.787 15.5627 42.4244 15.2693 42.1684 14.896C41.9124 14.512 41.7844 14.08 41.7844 13.6C41.7844 13.1413 41.891 12.7253 42.1044 12.352C42.3284 11.9787 42.6857 11.68 43.1764 11.456C43.6777 11.232 44.3497 11.12 45.1924 11.12H47.8804V12.224H45.2564C44.4884 12.224 43.971 12.352 43.7044 12.608C43.4377 12.864 43.3044 13.1733 43.3044 13.536C43.3044 13.952 43.4697 14.288 43.8004 14.544C44.131 14.7893 44.5897 14.912 45.1764 14.912C45.7524 14.912 46.2537 14.784 46.6804 14.528C47.1177 14.272 47.4324 13.8987 47.6244 13.408L47.9284 14.464C47.7257 14.9653 47.3684 15.3653 46.8564 15.664C46.3444 15.952 45.699 16.096 44.9204 16.096ZM62.6109 7.44C63.2935 7.44 63.8962 7.57333 64.4189 7.84C64.9415 8.10667 65.3469 8.512 65.6349 9.056C65.9335 9.6 66.0829 10.288 66.0829 11.12V16H64.5469V11.296C64.5469 10.4747 64.3549 9.856 63.9709 9.44C63.5869 9.024 63.0482 8.816 62.3549 8.816C61.8429 8.816 61.3949 8.92267 61.0109 9.136C60.6269 9.34933 60.3282 9.664 60.1149 10.08C59.9122 10.496 59.8109 11.0133 59.8109 11.632V16H58.2749V11.296C58.2749 10.4747 58.0829 9.856 57.6989 9.44C57.3255 9.024 56.7869 8.816 56.0829 8.816C55.5815 8.816 55.1389 8.92267 54.7549 9.136C54.3709 9.34933 54.0722 9.664 53.8589 10.08C53.6455 10.496 53.5389 11.0133 53.5389 11.632V16H52.0029V7.52H53.4749V9.776L53.2349 9.2C53.5015 8.64533 53.9122 8.21333 54.4669 7.904C55.0215 7.59467 55.6669 7.44 56.4029 7.44C57.2135 7.44 57.9122 7.64267 58.4989 8.048C59.0855 8.44267 59.4695 9.04533 59.6509 9.856L59.0269 9.6C59.2829 8.94933 59.7309 8.42667 60.3709 8.032C61.0109 7.63733 61.7575 7.44 62.6109 7.44ZM68.9091 16V7.52H70.4451V16H68.9091ZM75.8099 16.096C75.1059 16.096 74.4339 16 73.7939 15.808C73.1645 15.616 72.6685 15.3813 72.3059 15.104L72.9459 13.888C73.3085 14.1333 73.7565 14.3413 74.2899 14.512C74.8232 14.6827 75.3672 14.768 75.9219 14.768C76.6365 14.768 77.1485 14.6667 77.4579 14.464C77.7779 14.2613 77.9379 13.9787 77.9379 13.616C77.9379 13.3493 77.8419 13.1413 77.6499 12.992C77.4579 12.8427 77.2019 12.7307 76.8819 12.656C76.5725 12.5813 76.2259 12.5173 75.8419 12.464C75.4579 12.4 75.0739 12.3253 74.6899 12.24C74.3059 12.144 73.9539 12.016 73.6339 11.856C73.3139 11.6853 73.0579 11.456 72.8659 11.168C72.6739 10.8693 72.5779 10.4747 72.5779 9.984C72.5779 9.472 72.7219 9.024 73.0099 8.64C73.2979 8.256 73.7032 7.96267 74.2259 7.76C74.7592 7.54667 75.3885 7.44 76.1139 7.44C76.6685 7.44 77.2285 7.50933 77.7939 7.648C78.3699 7.776 78.8392 7.96267 79.2019 8.208L78.5459 9.424C78.1619 9.168 77.7619 8.992 77.3459 8.896C76.9299 8.8 76.5139 8.752 76.0979 8.752C75.4259 8.752 74.9245 8.864 74.5939 9.088C74.2632 9.30133 74.0979 9.57867 74.0979 9.92C74.0979 10.208 74.1939 10.432 74.3859 10.592C74.5885 10.7413 74.8445 10.8587 75.1539 10.944C75.4739 11.0293 75.8259 11.104 76.2099 11.168C76.5939 11.2213 76.9779 11.296 77.3619 11.392C77.7459 11.4773 78.0925 11.6 78.4019 11.76C78.7219 11.92 78.9779 12.144 79.1699 12.432C79.3725 12.72 79.4739 13.104 79.4739 13.584C79.4739 14.096 79.3245 14.5387 79.0259 14.912C78.7272 15.2853 78.3059 15.5787 77.7619 15.792C77.2179 15.9947 76.5672 16.096 75.8099 16.096ZM81.3935 16V7.52H82.9295V16H81.3935ZM90.3903 7.44C91.0836 7.44 91.6916 7.57333 92.2143 7.84C92.7476 8.10667 93.1636 8.512 93.4623 9.056C93.7609 9.6 93.9103 10.288 93.9103 11.12V16H92.3743V11.296C92.3743 10.4747 92.1716 9.856 91.7663 9.44C91.3716 9.024 90.8116 8.816 90.0863 8.816C89.5423 8.816 89.0676 8.92267 88.6623 9.136C88.2569 9.34933 87.9423 9.664 87.7183 10.08C87.5049 10.496 87.3983 11.0133 87.3983 11.632V16H85.8623V7.52H87.3343V9.808L87.0943 9.2C87.3716 8.64533 87.7983 8.21333 88.3743 7.904C88.9503 7.59467 89.6223 7.44 90.3903 7.44ZM96.7529 16V7.52H98.2889V16H96.7529ZM105.887 19.2C105.481 19.2 105.087 19.1307 104.703 18.992C104.319 18.864 103.988 18.672 103.71 18.416L104.367 17.264C104.58 17.4667 104.815 17.6213 105.071 17.728C105.327 17.8347 105.599 17.888 105.887 17.888C106.26 17.888 106.569 17.792 106.815 17.6C107.06 17.408 107.289 17.0667 107.503 16.576L108.031 15.408L108.191 15.216L111.519 7.52H113.023L108.911 16.848C108.665 17.4453 108.388 17.9147 108.079 18.256C107.78 18.5973 107.449 18.8373 107.087 18.976C106.724 19.1253 106.324 19.2 105.887 19.2ZM107.903 16.272L104.03 7.52H105.631L108.927 15.072L107.903 16.272ZM118.024 16.096C117.299 16.096 116.659 15.9627 116.104 15.696C115.56 15.4293 115.133 15.024 114.824 14.48C114.525 13.9253 114.376 13.232 114.376 12.4V7.52H115.912V12.224C115.912 13.056 116.109 13.68 116.504 14.096C116.909 14.512 117.475 14.72 118.2 14.72C118.733 14.72 119.197 14.6133 119.592 14.4C119.987 14.176 120.291 13.856 120.504 13.44C120.717 13.0133 120.824 12.5013 120.824 11.904V7.52H122.36V16H120.904V13.712L121.144 14.32C120.867 14.8853 120.451 15.3227 119.896 15.632C119.341 15.9413 118.717 16.096 118.024 16.096ZM119.864 6.016C119.64 6.016 119.448 5.94133 119.288 5.792C119.128 5.632 119.048 5.43467 119.048 5.2C119.048 4.95467 119.128 4.75733 119.288 4.608C119.448 4.448 119.64 4.368 119.864 4.368C120.088 4.368 120.28 4.448 120.44 4.608C120.6 4.75733 120.68 4.95467 120.68 5.2C120.68 5.43467 120.6 5.632 120.44 5.792C120.28 5.94133 120.088 6.016 119.864 6.016ZM116.888 6.016C116.664 6.016 116.472 5.94133 116.312 5.792C116.152 5.632 116.072 5.43467 116.072 5.2C116.072 4.95467 116.152 4.75733 116.312 4.608C116.472 4.448 116.664 4.368 116.888 4.368C117.112 4.368 117.304 4.448 117.464 4.608C117.624 4.75733 117.704 4.95467 117.704 5.2C117.704 5.43467 117.624 5.632 117.464 5.792C117.304 5.94133 117.112 6.016 116.888 6.016ZM126.532 13.952L126.564 11.984L131.444 7.52H133.3L129.556 11.2L128.724 11.904L126.532 13.952ZM125.284 16V4.128H126.82V16H125.284ZM131.764 16L128.436 11.872L129.428 10.64L133.652 16H131.764ZM135.144 16V4.128H136.68V16H135.144ZM142.716 7.44C143.634 7.44 144.434 7.62667 145.116 8C145.799 8.36267 146.327 8.86933 146.7 9.52C147.084 10.1707 147.276 10.9173 147.276 11.76C147.276 12.6027 147.09 13.3493 146.716 14C146.354 14.6507 145.852 15.1627 145.212 15.536C144.572 15.9093 143.842 16.096 143.02 16.096C142.21 16.096 141.484 15.9147 140.844 15.552C140.215 15.1787 139.719 14.6667 139.356 14.016C139.004 13.3547 138.828 12.592 138.828 11.728C138.828 11.6533 138.828 11.5733 138.828 11.488C138.839 11.4027 138.85 11.3227 138.86 11.248H146.076V12.368H139.676L140.284 11.984C140.284 12.528 140.402 13.0133 140.636 13.44C140.871 13.856 141.191 14.1867 141.596 14.432C142.012 14.6667 142.487 14.784 143.02 14.784C143.564 14.784 144.044 14.6667 144.46 14.432C144.876 14.1867 145.196 13.8507 145.42 13.424C145.655 12.9867 145.772 12.4907 145.772 11.936V11.68C145.772 11.104 145.644 10.6027 145.388 10.176C145.132 9.73867 144.77 9.39733 144.3 9.152C143.842 8.90667 143.303 8.784 142.684 8.784C142.183 8.784 141.724 8.86933 141.308 9.04C140.903 9.2 140.54 9.456 140.22 9.808L139.388 8.816C139.762 8.368 140.236 8.02667 140.812 7.792C141.388 7.55733 142.023 7.44 142.716 7.44Z" fill="#3873C3"/>
</svg>
