<svg width="66" height="20" viewBox="0 0 66 20" fill="none" xmlns="http://www.w3.org/2000/svg">
<path d="M2.25 12.25C2.25 14.3713 2.25 15.432 2.90901 16.091C3.56802 16.75 4.62868 16.75 6.75 16.75H11.25C13.3713 16.75 14.432 16.75 15.091 16.091C15.75 15.432 15.75 14.3713 15.75 12.25" stroke="#3873C3" stroke-width="1.5" stroke-linecap="round" stroke-linejoin="round"/>
<path d="M9 3.25V13M9 13L12 9.71875M9 13L6 9.71875" stroke="#3873C3" stroke-width="1.5" stroke-linecap="round" stroke-linejoin="round"/>
<path d="M29.836 15V11.248L30.158 12.116L25.944 5.2H27.442L30.984 11.038H30.172L33.728 5.2H35.114L30.914 12.116L31.222 11.248V15H29.836ZM38.9683 15.084C38.3336 15.084 37.7736 14.9673 37.2883 14.734C36.8123 14.5007 36.4389 14.146 36.1683 13.67C35.9069 13.1847 35.7763 12.578 35.7763 11.85V7.58H37.1203V11.696C37.1203 12.424 37.2929 12.97 37.6383 13.334C37.9929 13.698 38.4876 13.88 39.1223 13.88C39.5889 13.88 39.9949 13.7867 40.3403 13.6C40.6856 13.404 40.9516 13.124 41.1383 12.76C41.3249 12.3867 41.4183 11.9387 41.4183 11.416V7.58H42.7623V15H41.4883V12.998L41.6983 13.53C41.4556 14.0247 41.0916 14.4073 40.6063 14.678C40.1209 14.9487 39.5749 15.084 38.9683 15.084ZM40.5783 6.264C40.3823 6.264 40.2143 6.19867 40.0743 6.068C39.9343 5.928 39.8643 5.75533 39.8643 5.55C39.8643 5.33533 39.9343 5.16267 40.0743 5.032C40.2143 4.892 40.3823 4.822 40.5783 4.822C40.7743 4.822 40.9423 4.892 41.0823 5.032C41.2223 5.16267 41.2923 5.33533 41.2923 5.55C41.2923 5.75533 41.2223 5.928 41.0823 6.068C40.9423 6.19867 40.7743 6.264 40.5783 6.264ZM37.9743 6.264C37.7783 6.264 37.6103 6.19867 37.4703 6.068C37.3303 5.928 37.2603 5.75533 37.2603 5.55C37.2603 5.33533 37.3303 5.16267 37.4703 5.032C37.6103 4.892 37.7783 4.822 37.9743 4.822C38.1703 4.822 38.3383 4.892 38.4783 5.032C38.6183 5.16267 38.6883 5.33533 38.6883 5.55C38.6883 5.75533 38.6183 5.928 38.4783 6.068C38.3383 6.19867 38.1703 6.264 37.9743 6.264ZM46.4129 13.208L46.4409 11.486L50.7109 7.58H52.3349L49.0589 10.8L48.3309 11.416L46.4129 13.208ZM45.3209 15V4.612H46.6649V15H45.3209ZM50.9909 15L48.0789 11.388L48.9469 10.31L52.6429 15H50.9909ZM53.9478 15V4.612H55.2918V15H53.9478ZM60.574 7.51C61.3767 7.51 62.0767 7.67333 62.674 8C63.2713 8.31733 63.7333 8.76067 64.06 9.33C64.396 9.89933 64.564 10.5527 64.564 11.29C64.564 12.0273 64.4007 12.6807 64.074 13.25C63.7567 13.8193 63.318 14.2673 62.758 14.594C62.198 14.9207 61.5587 15.084 60.84 15.084C60.1307 15.084 59.496 14.9253 58.936 14.608C58.3853 14.2813 57.9513 13.8333 57.634 13.264C57.326 12.6853 57.172 12.018 57.172 11.262C57.172 11.1967 57.172 11.1267 57.172 11.052C57.1813 10.9773 57.1907 10.9073 57.2 10.842H63.514V11.822H57.914L58.446 11.486C58.446 11.962 58.5487 12.3867 58.754 12.76C58.9593 13.124 59.2393 13.4133 59.594 13.628C59.958 13.8333 60.3733 13.936 60.84 13.936C61.316 13.936 61.736 13.8333 62.1 13.628C62.464 13.4133 62.744 13.1193 62.94 12.746C63.1453 12.3633 63.248 11.9293 63.248 11.444V11.22C63.248 10.716 63.136 10.2773 62.912 9.904C62.688 9.52133 62.3707 9.22267 61.96 9.008C61.5587 8.79333 61.0873 8.686 60.546 8.686C60.1073 8.686 59.706 8.76067 59.342 8.91C58.9873 9.05 58.67 9.274 58.39 9.582L57.662 8.714C57.9887 8.322 58.404 8.02333 58.908 7.818C59.412 7.61267 59.9673 7.51 60.574 7.51Z" fill="#3873C3"/>
</svg>
