<svg width="20" height="20" viewBox="0 0 20 20" fill="none" xmlns="http://www.w3.org/2000/svg">
<path d="M2.73038 12.7464C2.02211 11.8263 1.66797 11.3662 1.66797 10C1.66797 8.63389 2.02211 8.17381 2.73038 7.25365C4.14461 5.41634 6.5164 3.33337 10.0013 3.33337C13.4862 3.33337 15.858 5.41634 17.2722 7.25365C17.9805 8.17381 18.3346 8.63389 18.3346 10C18.3346 11.3662 17.9805 11.8263 17.2722 12.7464C15.858 14.5837 13.4862 16.6667 10.0013 16.6667C6.5164 16.6667 4.14461 14.5837 2.73038 12.7464Z" stroke="#3873C3" stroke-width="1.5"/>
<path d="M12.5 10C12.5 11.3807 11.3807 12.5 10 12.5C8.61929 12.5 7.5 11.3807 7.5 10C7.5 8.61929 8.61929 7.5 10 7.5C11.3807 7.5 12.5 8.61929 12.5 10Z" stroke="#3873C3" stroke-width="1.5"/>
</svg>
