<svg width="20" height="20" viewBox="0 0 20 20" fill="none" xmlns="http://www.w3.org/2000/svg">
<g clip-path="url(#clip0_3777_4564)">
<path fill-rule="evenodd" clip-rule="evenodd" d="M4.68631 3.68682C3.30382 4.31876 2.29102 5.82185 2.29102 7.61424C2.29102 9.4454 3.04036 10.8569 4.11459 12.0665C4.99995 13.0634 6.07171 13.8897 7.11695 14.6955C7.36521 14.8869 7.61197 15.0771 7.85439 15.2682C8.29275 15.6138 8.68378 15.9171 9.06069 16.1373C9.4378 16.3577 9.74135 16.4583 9.99935 16.4583C10.2573 16.4583 10.5609 16.3577 10.938 16.1373C11.3149 15.9171 11.706 15.6138 12.1443 15.2682C12.3867 15.0771 12.6335 14.8869 12.8817 14.6955C13.927 13.8897 14.9987 13.0634 15.8841 12.0665C16.9583 10.8569 17.7077 9.4454 17.7077 7.61424C17.7077 5.82185 16.6949 4.31876 15.3124 3.68682C13.9693 3.07288 12.1646 3.23547 10.4497 5.01727C10.3318 5.13968 10.1693 5.20885 9.99935 5.20885C9.82945 5.20885 9.66687 5.13968 9.54904 5.01727C7.83407 3.23547 6.02941 3.07288 4.68631 3.68682ZM9.99935 3.71567C8.07264 1.99186 5.91515 1.75071 4.16665 2.54995C2.31994 3.39409 1.04102 5.35418 1.04102 7.61424C1.04102 9.83551 1.96643 11.53 3.17995 12.8965C4.15174 13.9908 5.3412 14.9066 6.3917 15.7155C6.62984 15.8988 6.86083 16.0767 7.08053 16.2499C7.50739 16.5864 7.96564 16.9452 8.43003 17.2166C8.89423 17.4878 9.42402 17.7083 9.99935 17.7083C10.5747 17.7083 11.1045 17.4878 11.5687 17.2166C12.0331 16.9452 12.4913 16.5864 12.9182 16.2499C13.1379 16.0767 13.3689 15.8988 13.607 15.7155C14.6575 14.9066 15.847 13.9908 16.8188 12.8965C18.0323 11.53 18.9577 9.83551 18.9577 7.61424C18.9577 5.35418 17.6788 3.39409 15.832 2.54995C14.0835 1.75071 11.9261 1.99186 9.99935 3.71567Z" fill="black"/>
</g>
<defs>
<clipPath id="clip0_3777_4564">
<rect width="20" height="20" fill="white"/>
</clipPath>
</defs>
</svg>
