<svg width="100" height="24" viewBox="0 0 100 24" fill="none" xmlns="http://www.w3.org/2000/svg">
<path d="M20.5001 6H3.5" stroke="black" stroke-opacity="0.8" stroke-width="1.5" stroke-linecap="round"/>
<path d="M18.8346 8.5L18.3747 15.3991C18.1977 18.054 18.1092 19.3815 17.2442 20.1907C16.3792 21 15.0488 21 12.388 21H11.6146C8.95382 21 7.62342 21 6.75841 20.1907C5.8934 19.3815 5.8049 18.054 5.62791 15.3991L5.16797 8.5" stroke="black" stroke-opacity="0.8" stroke-width="1.5" stroke-linecap="round"/>
<path opacity="0.5" d="M9.5 11L10 16" stroke="black" stroke-opacity="0.8" stroke-width="1.5" stroke-linecap="round"/>
<path opacity="0.5" d="M14.5 11L14 16" stroke="black" stroke-opacity="0.8" stroke-width="1.5" stroke-linecap="round"/>
<path opacity="0.5" d="M6.5 6C6.55588 6 6.58382 6 6.60915 5.99936C7.43259 5.97849 8.15902 5.45491 8.43922 4.68032C8.44784 4.65649 8.45667 4.62999 8.47434 4.57697L8.57143 4.28571C8.65431 4.03708 8.69575 3.91276 8.75071 3.8072C8.97001 3.38607 9.37574 3.09364 9.84461 3.01877C9.96213 3 10.0932 3 10.3553 3H13.6447C13.9068 3 14.0379 3 14.1554 3.01877C14.6243 3.09364 15.03 3.38607 15.2493 3.8072C15.3043 3.91276 15.3457 4.03708 15.4286 4.28571L15.5257 4.57697C15.5433 4.62992 15.5522 4.65651 15.5608 4.68032C15.841 5.45491 16.5674 5.97849 17.3909 5.99936C17.4162 6 17.4441 6 17.5 6" stroke="black" stroke-opacity="0.8" stroke-width="1.5"/>
<path d="M33.596 17.5V7.7H37.586C38.6313 7.7 39.546 7.91 40.33 8.33C41.1233 8.74067 41.7393 9.31467 42.178 10.052C42.6167 10.7893 42.836 11.6387 42.836 12.6C42.836 13.5613 42.6167 14.4107 42.178 15.148C41.7393 15.8853 41.1233 16.464 40.33 16.884C39.546 17.2947 38.6313 17.5 37.586 17.5H33.596ZM34.632 16.604H37.53C38.398 16.604 39.1493 16.436 39.784 16.1C40.428 15.7547 40.9273 15.2833 41.282 14.686C41.6367 14.0793 41.814 13.384 41.814 12.6C41.814 11.8067 41.6367 11.1113 41.282 10.514C40.9273 9.91667 40.428 9.45 39.784 9.114C39.1493 8.76867 38.398 8.596 37.53 8.596H34.632V16.604ZM48.0744 17.57C47.3091 17.57 46.6371 17.4113 46.0584 17.094C45.4797 16.7673 45.0271 16.324 44.7004 15.764C44.3737 15.1947 44.2104 14.546 44.2104 13.818C44.2104 13.09 44.3644 12.446 44.6724 11.886C44.9897 11.326 45.4191 10.8873 45.9604 10.57C46.5111 10.2433 47.1271 10.08 47.8084 10.08C48.4991 10.08 49.1104 10.2387 49.6424 10.556C50.1837 10.864 50.6084 11.3027 50.9164 11.872C51.2244 12.432 51.3784 13.0807 51.3784 13.818C51.3784 13.8647 51.3737 13.916 51.3644 13.972C51.3644 14.0187 51.3644 14.07 51.3644 14.126H44.9664V13.384H50.8324L50.4404 13.678C50.4404 13.146 50.3237 12.6747 50.0904 12.264C49.8664 11.844 49.5584 11.5173 49.1664 11.284C48.7744 11.0507 48.3217 10.934 47.8084 10.934C47.3044 10.934 46.8517 11.0507 46.4504 11.284C46.0491 11.5173 45.7364 11.844 45.5124 12.264C45.2884 12.684 45.1764 13.1647 45.1764 13.706V13.86C45.1764 14.42 45.2977 14.9147 45.5404 15.344C45.7924 15.764 46.1377 16.0953 46.5764 16.338C47.0244 16.5713 47.5331 16.688 48.1024 16.688C48.5504 16.688 48.9657 16.6087 49.3484 16.45C49.7404 16.2913 50.0764 16.0487 50.3564 15.722L50.9164 16.366C50.5897 16.758 50.1791 17.0567 49.6844 17.262C49.1991 17.4673 48.6624 17.57 48.0744 17.57ZM53.4016 17.5V7.112H54.3956V17.5H53.4016ZM60.2834 17.57C59.5181 17.57 58.8461 17.4113 58.2674 17.094C57.6887 16.7673 57.2361 16.324 56.9094 15.764C56.5827 15.1947 56.4194 14.546 56.4194 13.818C56.4194 13.09 56.5734 12.446 56.8814 11.886C57.1987 11.326 57.6281 10.8873 58.1694 10.57C58.7201 10.2433 59.3361 10.08 60.0174 10.08C60.7081 10.08 61.3194 10.2387 61.8514 10.556C62.3927 10.864 62.8174 11.3027 63.1254 11.872C63.4334 12.432 63.5874 13.0807 63.5874 13.818C63.5874 13.8647 63.5827 13.916 63.5734 13.972C63.5734 14.0187 63.5734 14.07 63.5734 14.126H57.1754V13.384H63.0414L62.6494 13.678C62.6494 13.146 62.5327 12.6747 62.2994 12.264C62.0754 11.844 61.7674 11.5173 61.3754 11.284C60.9834 11.0507 60.5307 10.934 60.0174 10.934C59.5134 10.934 59.0607 11.0507 58.6594 11.284C58.2581 11.5173 57.9454 11.844 57.7214 12.264C57.4974 12.684 57.3854 13.1647 57.3854 13.706V13.86C57.3854 14.42 57.5067 14.9147 57.7494 15.344C58.0014 15.764 58.3467 16.0953 58.7854 16.338C59.2334 16.5713 59.7421 16.688 60.3114 16.688C60.7594 16.688 61.1747 16.6087 61.5574 16.45C61.9494 16.2913 62.2854 16.0487 62.5654 15.722L63.1254 16.366C62.7987 16.758 62.3881 17.0567 61.8934 17.262C61.4081 17.4673 60.8714 17.57 60.2834 17.57ZM67.9346 17.57C67.2439 17.57 66.7119 17.3833 66.3386 17.01C65.9653 16.6367 65.7786 16.1093 65.7786 15.428V8.526H66.7726V15.372C66.7726 15.8013 66.8799 16.1327 67.0946 16.366C67.3186 16.5993 67.6359 16.716 68.0466 16.716C68.4853 16.716 68.8493 16.59 69.1386 16.338L69.4886 17.052C69.2926 17.2293 69.0546 17.36 68.7746 17.444C68.5039 17.528 68.2239 17.57 67.9346 17.57ZM64.4626 10.976V10.15H69.0126V10.976H64.4626ZM74.1603 17.57C73.395 17.57 72.723 17.4113 72.1443 17.094C71.5657 16.7673 71.113 16.324 70.7863 15.764C70.4597 15.1947 70.2963 14.546 70.2963 13.818C70.2963 13.09 70.4503 12.446 70.7583 11.886C71.0757 11.326 71.505 10.8873 72.0463 10.57C72.597 10.2433 73.213 10.08 73.8943 10.08C74.585 10.08 75.1963 10.2387 75.7283 10.556C76.2697 10.864 76.6943 11.3027 77.0023 11.872C77.3103 12.432 77.4643 13.0807 77.4643 13.818C77.4643 13.8647 77.4597 13.916 77.4503 13.972C77.4503 14.0187 77.4503 14.07 77.4503 14.126H71.0523V13.384H76.9183L76.5263 13.678C76.5263 13.146 76.4097 12.6747 76.1763 12.264C75.9523 11.844 75.6443 11.5173 75.2523 11.284C74.8603 11.0507 74.4077 10.934 73.8943 10.934C73.3903 10.934 72.9377 11.0507 72.5363 11.284C72.135 11.5173 71.8223 11.844 71.5983 12.264C71.3743 12.684 71.2623 13.1647 71.2623 13.706V13.86C71.2623 14.42 71.3837 14.9147 71.6263 15.344C71.8783 15.764 72.2237 16.0953 72.6623 16.338C73.1103 16.5713 73.619 16.688 74.1883 16.688C74.6363 16.688 75.0517 16.6087 75.4343 16.45C75.8263 16.2913 76.1623 16.0487 76.4423 15.722L77.0023 16.366C76.6757 16.758 76.265 17.0567 75.7703 17.262C75.285 17.4673 74.7483 17.57 74.1603 17.57ZM81.7936 17.5L86.2736 7.7H87.2956L91.7756 17.5H90.6836L86.5676 8.302H86.9876L82.8716 17.5H81.7936ZM83.5576 14.882L83.8656 14.042H89.5636L89.8716 14.882H83.5576ZM93.1868 17.5V7.112H94.1808V17.5H93.1868ZM96.9465 17.5V7.112H97.9405V17.5H96.9465Z" fill="black" fill-opacity="0.8"/>
</svg>
