<svg width="81" height="80" viewBox="0 0 81 80" fill="none" xmlns="http://www.w3.org/2000/svg">
<g clip-path="url(#clip0_3720_5492)">
<rect x="0.5" width="80" height="80" rx="40" fill="#23293E"/>
<path d="M41.0004 21.4313C30.7629 21.4313 22.4316 29.7625 22.4316 40C22.4316 45.075 24.4441 49.8188 28.0941 53.3438C29.2441 54.4625 30.5379 55.425 31.9441 56.2063C34.7004 57.7506 37.8316 58.5688 41.0004 58.5688C44.2441 58.5688 47.4316 57.7188 50.2191 56.1125C51.5629 55.3494 52.8191 54.4 53.9566 53.2931C57.5754 49.7744 59.5691 45.05 59.5691 39.9994C59.5691 29.7625 51.2379 21.4313 41.0004 21.4313ZM31.8379 55.4125C30.6879 54.7313 29.6191 53.925 28.6504 53.0056C28.6566 52.9681 28.6629 52.9313 28.6691 52.8931L31.9941 54.4806C31.9191 54.825 31.8691 55.1563 31.8379 55.4125ZM49.0879 53.4938C49.2129 53.6631 49.3379 53.9563 49.4441 54.3188C49.5691 54.7688 49.6566 55.2688 49.7191 55.6688C47.0754 57.1563 44.0629 57.9438 41.0004 57.9438C38.0066 57.9438 35.0441 57.1813 32.4254 55.75C32.4629 55.4063 32.5379 54.875 32.6629 54.3813C32.7691 53.9375 32.9066 53.5938 33.0566 53.3875C33.1566 53.25 33.1254 53.05 32.9816 52.95C32.8441 52.85 32.6441 52.8819 32.5441 53.025C32.4004 53.2313 32.2691 53.5125 32.1566 53.8694L28.7879 52.2569C29.3254 49.775 30.2754 48.9125 31.5379 48.475C31.6316 48.5688 31.7129 48.6444 31.7941 48.7131C31.9191 49.1819 32.1754 49.6438 32.5754 50.1006C32.8816 50.4506 33.1629 50.6625 33.1754 50.6756C33.7248 50.8988 33.6629 50.1006 33.6629 50.1006C34.2629 50.5563 34.9941 50.5631 35.0379 50.5631C35.1941 50.5631 35.3254 50.45 35.3441 50.3006C35.3691 50.1444 35.2816 50.0006 35.1316 49.95C34.8629 49.8688 34.7004 49.7563 34.6316 49.6063C34.4816 49.2625 34.7566 48.6375 35.0566 47.975L35.1379 47.7813H35.1441C35.1691 49.7375 35.5629 52.6563 37.5816 53.4938C38.8941 54.0375 40.2441 54.3063 41.4566 54.3063C42.8254 54.3063 44.0191 53.9688 44.7879 53.2938C46.2941 51.9813 46.9566 50.0506 46.7754 47.5694C46.8129 47.5756 46.8504 47.5819 46.8879 47.5875C47.0566 48.1625 47.2379 48.65 47.3254 48.8756C47.2504 49.0188 47.1004 49.2944 46.8129 49.7631C46.7504 49.8756 46.7566 50.0125 46.8316 50.1131C46.8941 50.1944 46.9879 50.2381 47.0816 50.2381C47.1129 50.2381 47.1379 50.2319 47.1691 50.2256C47.8691 50.0256 48.4566 49.6938 48.9254 49.25C49.4816 49.0938 49.9441 48.8313 50.3004 48.4688C51.9191 49.2069 52.8691 50.45 53.2879 52.3563L49.9379 53.8063C49.8316 53.525 49.7191 53.2938 49.5879 53.1188C49.4879 52.9806 49.2941 52.9494 49.1504 53.0556C49.0129 53.1563 48.9816 53.3563 49.0879 53.4938ZM50.3816 44.4875C50.5066 44.8069 50.8629 46.3625 50.2566 47.5125C50.1004 47.8069 49.8941 48.05 49.6316 48.2444C49.6754 48.1506 49.7691 47.9569 49.7691 47.9569C49.936 47.4713 49.2623 47.4225 49.2004 47.7069C49.1941 47.7131 49.0666 48.145 48.5441 48.7569C48.3516 48.9819 48.0879 49.1444 47.8129 49.2944C47.9129 49.1131 47.9504 49.0319 47.9504 49.0256C47.9879 48.9506 47.9941 48.8563 47.9566 48.7756C47.9566 48.7694 47.6691 48.0569 47.4316 47.2319C47.2316 46.5006 47.1379 45.95 47.1504 45.5563C47.1566 45.0813 47.3254 44.35 47.5066 43.5688C47.5941 43.1625 47.6879 42.7563 47.7691 42.35C48.4129 43.8063 49.2879 45.2625 49.3316 45.3375C49.6235 45.5956 49.9654 45.3713 49.8691 45.0119C49.8566 44.9938 48.4941 42.725 47.9379 41.0744C47.8004 40.6619 47.7254 40.3181 47.7129 40.0681C47.6754 39.0494 47.5879 37.4369 47.4691 36.2369C47.4316 35.7931 47.3629 35.1931 47.2629 34.8556C47.1191 34.3806 46.9754 33.2744 46.8754 32.5431C46.8441 32.2869 46.7316 31.5744 46.7129 31.4494C46.4879 29.8681 46.0816 27.6994 45.0941 27.0994C44.9441 27.0119 44.7566 27.0556 44.6629 27.2056C44.5754 27.3556 44.6191 27.5431 44.7691 27.6369C45.3316 27.9744 45.7754 29.2869 46.0941 31.5369C46.1066 31.6119 46.1129 31.6744 46.1191 31.7244C45.9754 31.7556 45.8254 31.7931 45.7066 31.8244C45.6379 31.6306 45.5629 31.2244 45.5254 30.8431C45.5066 30.6806 45.3816 30.5619 45.2066 30.5619C45.0441 30.5681 44.9129 30.6931 44.9004 30.8556C44.8816 31.1556 44.8191 31.7244 44.7379 31.9369C44.6379 32.0431 44.0379 32.1056 43.4754 32.0369C43.3441 31.9369 43.1129 31.2744 43.0004 30.6431C42.9754 30.4806 42.8191 30.3681 42.6629 30.3869C42.4941 30.4056 42.3754 30.5494 42.3816 30.7119C42.3816 30.7181 42.4004 31.5931 41.9754 32.1244C41.9379 32.1681 41.4754 32.5869 37.4629 32.0119C37.3816 31.9681 37.1129 31.3931 37.4004 29.2931C37.4129 29.1869 37.3754 29.0869 37.3004 29.0181C37.2191 28.9494 37.1191 28.9181 37.0129 28.9431C36.6629 29.0306 36.4316 29.5119 36.0379 32.0306V32.0494C35.8191 32.0431 35.5629 31.9806 35.2879 31.8931C35.5816 28.6494 36.6879 27.6619 36.7129 27.6431C36.8441 27.5306 36.8629 27.3369 36.7566 27.2056C36.6504 27.0681 36.4504 27.0494 36.3191 27.1556C36.2629 27.1994 34.9191 28.3244 34.6379 32.0869C34.6004 32.6244 34.5816 33.1931 34.5879 33.7619C34.5441 35.3119 34.4379 36.7806 34.2691 38.1306C34.1566 39.0369 34.0129 39.8806 33.8379 40.6369C33.8379 40.6438 33.8379 40.6556 33.8316 40.675C33.5254 41.9813 33.2816 42.1938 33.2691 42.1994C32.8879 42.5188 32.1504 43.5494 31.7816 44.8313C31.6129 44.5313 31.4629 44.1681 31.4191 43.7869C31.3441 43.1369 31.7941 42.0188 32.1566 41.1181C32.4004 40.5056 32.6129 39.9869 32.6816 39.6056C32.7504 39.2119 32.7504 38.2994 32.7504 37.2431C32.7504 35.8931 32.7504 33.8556 32.9566 33.4619C33.0379 33.3119 32.9816 33.1244 32.8316 33.0431C32.6816 32.9619 32.4879 33.0181 32.4066 33.1681C32.1441 33.6619 32.1254 35.0994 32.1254 37.2431C32.1254 38.2306 32.1254 39.1556 32.0629 39.4931C32.0066 39.8119 31.8004 40.3306 31.5754 40.8806C31.2254 41.7619 30.8316 42.7425 30.7879 43.5119C30.4879 42.8869 30.0566 41.7994 30.2754 40.8681C30.4191 40.2494 31.7004 36.1938 31.9441 35.0056C31.9941 34.7619 32.0441 34.4869 32.1004 34.1806C32.5129 31.9431 33.1941 28.1994 35.6379 26.4244C38.4566 24.3619 40.0629 25.1056 40.4879 25.3806C40.6191 25.4681 40.7691 25.4744 40.8691 25.3494C41.0691 25.2119 43.4816 24.5431 45.8316 26.4619C48.1754 28.3744 48.5566 30.2931 48.8629 31.8369C48.8629 31.8369 49.0254 32.7181 49.1004 33.1369C49.4191 34.9681 49.9004 37.7369 50.8191 39.5431C51.2754 40.8556 51.3254 42.8119 50.4129 44.2056C50.3566 44.2875 50.3441 44.3938 50.3816 44.4875ZM46.7129 46.9188C46.6504 46.9056 46.5816 46.8938 46.5254 46.875C45.4254 46.5438 44.9504 44.975 44.7504 43.7938C44.8941 43.7056 45.0379 43.5994 45.1754 43.4938C46.0004 42.8563 46.6629 41.9563 47.2004 40.7875C47.2316 40.9125 47.2754 41.0569 47.3191 41.2C47.2441 41.8938 47.0691 42.675 46.8941 43.4313C46.7129 44.2438 46.5379 45.0063 46.5254 45.5438C46.5191 45.9 46.5816 46.3563 46.7129 46.9188ZM35.0379 43.1188L34.9879 42.875C34.8379 42.1125 34.5879 41.2063 34.4566 40.7313C34.5316 40.4125 34.5941 40.075 34.6566 39.7313C35.1816 40.8938 36.0504 42.4563 37.2316 43.475C37.0254 44.5063 36.5004 46.3756 35.3629 47.0063C35.5629 45.8 35.2566 44.225 35.0379 43.1188ZM34.8254 38.6625C34.8441 38.5063 35.1691 35.35 35.2129 33.7688C35.2066 33.3438 35.2191 32.9375 35.2379 32.5438C35.6566 32.6625 36.0254 32.7 36.3504 32.65C36.4816 32.6313 36.5879 32.5313 36.6129 32.4063C36.6191 32.3625 36.6941 31.8813 36.7129 31.7688C36.8691 32.55 37.2379 32.6063 37.4316 32.6375C38.9504 32.8563 40.0066 32.9375 40.7441 32.9375C41.9066 32.9375 42.2879 32.7313 42.4629 32.5125C42.5816 32.3625 42.6754 32.2 42.7504 32.0313C42.9004 32.3625 43.1004 32.6063 43.3504 32.6438C43.6191 32.675 44.8816 32.8188 45.2504 32.2938C45.2941 32.3438 45.3316 32.3813 45.3691 32.4125C45.4754 32.4813 45.5879 32.5 45.7004 32.4688C45.8066 32.4438 46.0129 32.3938 46.2191 32.3438C46.2316 32.4313 46.2441 32.5188 46.2566 32.625C46.3629 33.4188 46.5066 34.5125 46.6629 35.0313C46.7316 35.2563 46.7941 35.7125 46.8441 36.2938C46.9441 37.2563 47.0191 38.475 47.0629 39.4438L47.0566 39.45C47.0566 39.4563 47.0566 39.4625 47.0504 39.475C46.4941 41.0938 45.7566 42.2494 44.7879 43.0056C44.7441 43.0375 44.7004 43.0744 44.6566 43.0994C44.4691 43.2431 44.2754 43.3619 44.0691 43.4744C42.8316 44.1313 41.2754 44.2306 39.1691 43.8056C38.6754 43.7056 38.1941 43.4619 37.7379 43.0806C36.3441 41.9494 35.0729 39.15 34.9191 38.7619C34.9004 38.7375 34.8316 38.6625 34.8254 38.6625ZM37.7941 43.9C38.1941 44.1563 38.6129 44.3306 39.0441 44.4188C39.7316 44.5563 40.5504 44.6813 41.4066 44.6813C42.3191 44.6813 43.2754 44.5375 44.1754 44.1125C44.4191 45.375 44.9566 46.875 46.1316 47.3806C46.3629 49.7681 45.7754 51.6063 44.3754 52.8244C43.1129 53.925 40.3566 53.9681 37.8191 52.9181C35.9754 52.15 35.7629 48.9744 35.7691 47.4744C37.0191 46.7125 37.5629 45.0313 37.7941 43.9ZM31.0191 44.7125C31.0191 44.7063 31.0191 44.7063 31.0191 44.6994C31.1941 45.1188 31.4191 45.4681 31.6004 45.7056C31.5504 46.1119 31.541 46.4863 31.5816 46.8431C31.6254 47.2256 32.2504 47.3138 32.2066 46.7681C32.1798 46.4288 32.2316 45.6556 32.2316 45.6494C32.4566 44.1931 33.3379 42.9556 33.6691 42.6869C33.8254 42.5556 33.9816 42.2869 34.1254 41.8931C34.2129 42.2431 34.3004 42.6244 34.3754 42.9994L34.4254 43.2369C34.6691 44.4619 35.0316 46.3056 34.6379 47.3625C34.6191 47.3938 34.4816 47.725 34.4816 47.725C34.1879 48.3813 33.9129 49.0063 33.9754 49.5369C33.8254 49.3994 33.6879 49.2181 33.6129 48.975C33.5629 48.825 33.4129 48.7306 33.2566 48.7619C33.1066 48.7869 32.9941 48.925 33.0004 49.0813L33.0191 49.6625C32.6754 49.2625 32.4566 48.8625 32.3691 48.4688C32.3691 48.4688 32.2754 48.3063 32.2691 48.3063C31.9316 48.0063 31.3129 47.4125 30.9879 46.8063C30.6754 46.2375 30.9004 45.2438 31.0191 44.7125ZM50.3004 55.3313C50.2504 55.0438 50.1879 54.7244 50.1129 54.4119L53.3254 53.0244C52.3941 53.9063 51.3754 54.6813 50.3004 55.3313ZM53.9441 52.4125C53.5254 50.2813 52.4566 48.825 50.7004 47.9688C50.7316 47.9125 50.7816 47.8625 50.8129 47.8C51.4629 46.5681 51.1879 45.0056 51.0191 44.4188C51.9629 42.8625 51.9004 40.7563 51.3941 39.3C50.5004 37.5375 50.0316 34.825 49.7129 33.0313C49.6379 32.6063 49.5754 32.225 49.5129 31.925L49.4754 31.7125C49.1691 30.1625 48.7441 28.0375 46.2316 25.975C44.3816 24.4688 42.5441 24.4188 41.6129 24.525C41.4879 24.5375 40.9816 24.6063 40.6504 24.7563C39.9566 24.3875 38.1254 23.8313 35.2691 25.9188C32.6254 27.8438 31.9498 31.7444 31.4879 34.0688C31.3391 34.8181 29.8191 40.0813 29.6691 40.725C29.3441 42.1 30.1254 43.6056 30.4191 44.1688C30.4441 44.2125 30.4379 44.4438 30.4066 44.575C30.2629 45.2313 30.0191 46.325 30.4379 47.1C30.6066 47.4188 30.8379 47.7181 31.0754 47.9938C29.4754 48.65 28.6004 49.95 28.1254 52.3688C28.1191 52.4 28.1129 52.4375 28.1066 52.4688C24.8504 49.1063 23.0566 44.7063 23.0566 40C23.0566 30.1063 31.1066 22.0563 41.0004 22.0563C50.8941 22.0563 58.9441 30.1063 58.9441 40C58.9441 44.6813 57.1691 49.0625 53.9441 52.4125Z" fill="white"/>
</g>
<defs>
<clipPath id="clip0_3720_5492">
<rect x="0.5" width="80" height="80" rx="40" fill="white"/>
</clipPath>
</defs>
</svg>
