<svg width="20" height="20" viewBox="0 0 20 20" fill="none" xmlns="http://www.w3.org/2000/svg">
<path opacity="0.5" d="M3.33398 18.3334H16.6673" stroke="black" stroke-width="1.5" stroke-linecap="round"/>
<path d="M12.1919 2.43448L11.574 3.0524L5.8932 8.73322C5.50843 9.118 5.31604 9.31039 5.15058 9.52252C4.95541 9.77275 4.78807 10.0435 4.65155 10.33C4.53581 10.5728 4.44977 10.8309 4.27769 11.3472L3.54852 13.5347L3.37028 14.0694C3.2856 14.3234 3.35172 14.6035 3.54107 14.7929C3.73042 14.9822 4.0105 15.0483 4.26455 14.9637L4.79926 14.7854L6.98677 14.0562L6.9868 14.0562C7.50301 13.8842 7.76112 13.7981 8.00397 13.6824C8.29045 13.5459 8.5612 13.3785 8.81143 13.1834C9.02355 13.0179 9.21594 12.8255 9.60071 12.4408L9.60072 12.4407L15.2815 6.75992L15.8995 6.142C16.9233 5.11819 16.9233 3.45828 15.8995 2.43448C14.8757 1.41068 13.2157 1.41068 12.1919 2.43448Z" stroke="black" stroke-width="1.5"/>
<path opacity="0.5" d="M11.5724 3.05261C11.5724 3.05261 11.6496 4.36569 12.8082 5.52429C13.9668 6.68289 15.2799 6.76013 15.2799 6.76013M4.79762 14.7856L3.54688 13.5349" stroke="black" stroke-width="1.5"/>
</svg>
