<svg width="44" height="44" viewBox="0 0 44 44" fill="none" xmlns="http://www.w3.org/2000/svg">
<rect width="44" height="44" rx="22" fill="#B1C7E4"/>
<g clip-path="url(#clip0_3777_4551)">
<circle cx="21.166" cy="21.1667" r="7.5" stroke="black" stroke-width="1.5"/>
<path d="M30.1773 29.479C30.1251 29.5579 30.0307 29.6523 29.8418 29.8411C29.653 30.03 29.5585 30.1244 29.4796 30.1767C29.0175 30.4827 28.3923 30.325 28.1306 29.8363C28.0859 29.7529 28.0476 29.625 27.9709 29.3691C27.8872 29.0896 27.8453 28.9498 27.8372 28.8515C27.7895 28.2723 28.273 27.7889 28.8521 27.8365C28.9505 27.8446 29.0903 27.8865 29.3698 27.9703C29.6256 28.0469 29.7536 28.0853 29.837 28.1299C30.3256 28.3916 30.4834 29.0168 30.1773 29.479Z" stroke="black" stroke-width="1.5" stroke-linecap="round"/>
</g>
<defs>
<clipPath id="clip0_3777_4551">
<rect width="20" height="20" fill="white" transform="translate(12 12)"/>
</clipPath>
</defs>
</svg>
