<svg xmlns="http://www.w3.org/2000/svg" shape-rendering="geometricPrecision" text-rendering="geometricPrecision" image-rendering="optimizeQuality" fill-rule="evenodd" clip-rule="evenodd" viewBox="0 0 455 512.52"><path d="M453.799 312.599c2.209 16.728 1.335 34.446-2.335 52.218-5.566 27.043-17.241 53.185-33.422 76.104-16.089 22.787-36.716 42.508-60.307 56.888a16.527 16.527 0 01-8.755 2.868 16.342 16.342 0 01-9.395-2.588l-.534-.367c-11.771-7.531-22.54-15.712-32.247-24.371-10.272-9.163-19.512-18.965-27.649-29.196-10.971-13.767-19.954-28.314-26.81-43.122-7.001-15.12-11.798-30.573-14.246-45.807-2.536-15.717-2.585-31.137-.005-45.674 2.547-14.338 7.653-27.91 15.455-40.182a104.017 104.017 0 0110.761-14.219 109.302 109.302 0 0113.128-12.317c10.935-8.721 22.692-15.399 34.856-19.884 12.257-4.52 24.968-6.805 37.716-6.713 12.616.093 25.079 2.51 36.985 7.369 16.247 6.628 31.532 17.889 42.696 31.486a105.34 105.34 0 018.563 12.057l.357.634c8.083 13.506 13.064 28.709 15.188 44.816zM15.982 138.086h86.586V58.669c0-4.4 1.797-8.399 4.69-11.293l.426-.385c2.864-2.668 6.691-4.306 10.866-4.306h46.083V0h32.374v42.685h51.536c4.379 0 8.373 1.807 11.276 4.706l.013-.012c2.893 2.894 4.695 6.896 4.695 11.29v79.371h.517c.251 0 .497.016.74.046h79.87c8.762 0 15.983 7.221 15.983 15.984v36.515a128.718 128.718 0 00-11.84-1.235v-35.28a4.135 4.135 0 00-4.143-4.143h-87.048c-.25 0-.497-.015-.74-.046h-71.242l.16 180.931a52.306 52.306 0 00-7.361-.497h-4.432l-.159-180.434h-65.604a5.835 5.835 0 01-.74.046H15.982a4.153 4.153 0 00-4.141 4.143v346.61h278.092c3.016 2.48 6.125 4.93 9.327 7.347 1.891 1.428 3.892 2.952 5.978 4.493H5.921A5.922 5.922 0 010 506.6V154.07c0-8.789 7.205-15.984 15.982-15.984zm83.967 275.935H40.456v-13.797l28.257-36.866-.33-.664h-23.18l-1.987-17.66h56.293v13.798l-27.927 36.866.332.663h28.035v17.66zm-40.501 18.033c3.25 0 6.31.511 9.183 1.531l-1.928 9.013-.737.454c-.982-.529-2.116-.954-3.401-1.276-1.285-.321-2.475-.482-3.571-.482-2.305 0-3.969.67-4.989 2.013-1.02 1.342-1.531 3.581-1.531 6.717 0 3.666.586 6.34 1.757 8.022 1.172 1.682 3.005 2.523 5.5 2.523 1.058 0 2.239-.104 3.544-.311 1.303-.208 2.447-.502 3.428-.88l.907.568-.907 8.956c-2.268.718-4.894 1.078-7.879 1.078-6.085 0-10.668-1.588-13.748-4.763s-4.62-7.804-4.62-13.888c0-6.124 1.653-10.867 4.961-14.23 3.307-3.363 7.984-5.045 14.031-5.045zm35.403-.057c5.328 0 9.448 1.579 12.357 4.734 2.911 3.155 4.367 7.606 4.367 13.35 0 6.35-1.597 11.263-4.792 14.74-3.194 3.477-7.719 5.216-13.577 5.216-5.328 0-9.448-1.597-12.359-4.791-2.908-3.193-4.365-7.72-4.365-13.578 0-6.273 1.597-11.12 4.79-14.541 3.194-3.42 7.721-5.13 13.579-5.13zm-1.02 9.071c-1.475 0-2.59.254-3.345.765-.757.511-1.296 1.407-1.617 2.693-.321 1.285-.482 3.155-.482 5.612 0 3.136.17 5.518.511 7.143.34 1.625.916 2.76 1.728 3.402.814.642 2.013.963 3.601.963 1.474 0 2.589-.255 3.344-.766.756-.509 1.294-1.416 1.615-2.721.323-1.303.484-3.184.484-5.64 0-3.099-.172-5.462-.511-7.086-.34-1.626-.916-2.759-1.73-3.401-.812-.643-2.011-.964-3.598-.964zm44.927-8.618c5.403 0 9.551 1.465 12.443 4.394 2.891 2.929 4.336 7.153 4.336 12.671 0 6.538-1.681 11.564-5.045 15.078-3.364 3.516-8.182 5.274-14.456 5.274-3.931 0-8.54-.172-13.832-.511l.567-10.772-.567-25.906 16.554-.228zm-.567 28.97c1.775 0 3.127-.71 4.053-2.126.926-1.418 1.388-3.751 1.388-7.001 0-2.76-.188-4.933-.565-6.52-.378-1.588-.984-2.73-1.815-3.429-.832-.701-1.985-1.05-3.459-1.05-1.436 0-2.852.076-4.252.227l-.396 15.93.113 3.515c2.268.303 3.913.454 4.933.454zm53.885-1.135l.623.794-.679 8.277h-25.852l.567-10.772-.567-25.906h26.304l.624.793-.737 8.276-9.014-.339h-5.84l-.113 5.158h5.613l5.896-.169.624.793-.68 8.278-6.577-.172h-5.102l-.057 2.155.113 3.175h5.444l9.41-.341zm-82.19-46.264v-68.987h22.075v68.987h-22.075zm71.194-16.668h-14.349v16.668h-22.075v-68.987h34.767c15.822 0 23.732 8.499 23.732 25.498 0 9.345-2.06 16.262-6.18 20.751-1.547 1.692-3.68 3.128-6.402 4.304-2.724 1.178-5.887 1.766-9.493 1.766zm-14.349-34.659v16.999h5.077c2.649 0 4.581-.276 5.795-.827 1.213-.552 1.82-1.822 1.82-3.808v-7.727c0-1.987-.607-3.256-1.82-3.808-1.214-.552-3.146-.829-5.795-.829h-5.077zm42.896-104.334a5.922 5.922 0 0111.84-.141 134.056 134.056 0 00-11.84 25.764V258.36zm0-70.893a5.923 5.923 0 015.921-5.92 5.922 5.922 0 015.92 5.92v32.751a5.921 5.921 0 01-11.841 0v-32.751zm91.876 0a5.922 5.922 0 015.92-5.92 5.922 5.922 0 015.921 5.92v4.817a132.905 132.905 0 00-11.841 3.224v-8.041zm-46.065 0a5.922 5.922 0 015.92-5.92 5.922 5.922 0 015.92 5.92v24.293a154.1 154.1 0 00-11.84 8.326v-32.619zM42.121 258.36a5.923 5.923 0 015.921-5.92 5.922 5.922 0 015.92 5.92v32.749a5.922 5.922 0 01-5.92 5.92 5.923 5.923 0 01-5.921-5.92V258.36zm91.876 0a5.922 5.922 0 015.92-5.92 5.922 5.922 0 015.921 5.92v32.749a5.922 5.922 0 01-5.921 5.92 5.922 5.922 0 01-5.92-5.92V258.36zm-46.065 0a5.922 5.922 0 015.92-5.92 5.922 5.922 0 015.92 5.92v32.749a5.922 5.922 0 01-5.92 5.92 5.922 5.922 0 01-5.92-5.92V258.36zm-45.811-70.893a5.923 5.923 0 015.921-5.92 5.922 5.922 0 015.92 5.92v32.751a5.921 5.921 0 01-11.841 0v-32.751zm91.876 0a5.922 5.922 0 015.92-5.92 5.922 5.922 0 015.921 5.92v32.751a5.922 5.922 0 01-11.841 0v-32.751zm-46.065 0a5.922 5.922 0 015.92-5.92 5.922 5.922 0 015.92 5.92v32.751a5.921 5.921 0 01-5.92 5.92 5.921 5.921 0 01-5.92-5.92v-32.751zm110-105.184a5.922 5.922 0 015.92-5.92 5.922 5.922 0 015.921 5.92v32.751a5.922 5.922 0 01-5.921 5.92 5.922 5.922 0 01-5.92-5.92V82.283zm-46.065 0a5.921 5.921 0 015.92-5.92 5.922 5.922 0 015.92 5.92v32.751a5.922 5.922 0 01-5.92 5.92 5.921 5.921 0 01-5.92-5.92V82.283zm-37.458 55.757h138.277V58.669a4.135 4.135 0 00-1.226-2.918v-.024a4.116 4.116 0 00-2.917-1.201H118.55a4.118 4.118 0 00-2.713 1.005l-.207.217a4.132 4.132 0 00-1.221 2.921v79.371zm258.555 161.554c-15.107-15.098-39.622-15.077-54.705 0-7.287 7.284-11.227 16.998-11.227 27.288 0 10.702 4.314 20.376 11.293 27.357 6.953 6.958 16.6 11.26 27.297 11.26 10.663 0 20.321-4.322 27.307-11.31 14.962-14.965 15.017-39.619.035-54.595zm-20.987 189.388c-1.926 1.402-4.54 1.595-6.686.219-23.142-14.721-42.596-32.414-57.867-51.62-21.078-26.443-34.368-55.776-38.909-84.009-4.622-28.644-.302-56.188 13.952-78.586 5.613-8.86 12.795-16.923 21.545-23.884 20.114-16.042 43.09-24.489 65.957-24.324 22.04.165 43.778 8.392 62.571 25.535 6.604 5.999 12.162 12.878 16.703 20.335 15.327 25.232 18.629 57.426 11.887 90.061-10.517 51.101-44.277 99.032-89.153 126.273zm-6.356-211.272c27.186 0 49.199 22.041 49.199 49.172 0 27.186-22.041 49.2-49.199 49.2-27.186 0-49.172-22.014-49.172-49.2-.055-27.159 21.986-49.172 49.172-49.172z"/></svg>