<svg width="81" height="80" viewBox="0 0 81 80" fill="none" xmlns="http://www.w3.org/2000/svg">
<g clip-path="url(#clip0_1040_13289)">
<rect x="0.5" width="80" height="80" rx="40" fill="#23293E"/>
<path d="M41.0004 21.4312C30.7629 21.4312 22.4316 29.7624 22.4316 39.9999C22.4316 45.0749 24.4441 49.8186 28.0941 53.3436C29.2441 54.4624 30.5379 55.4249 31.9441 56.2062C34.7004 57.7505 37.8316 58.5686 41.0004 58.5686C44.2441 58.5686 47.4316 57.7186 50.2191 56.1124C51.5629 55.3493 52.8191 54.3999 53.9566 53.293C57.5754 49.7743 59.5691 45.0499 59.5691 39.9993C59.5691 29.7624 51.2379 21.4312 41.0004 21.4312ZM31.8379 55.4124C30.6879 54.7311 29.6191 53.9249 28.6504 53.0055C28.6566 52.968 28.6629 52.9312 28.6691 52.893L31.9941 54.4805C31.9191 54.8249 31.8691 55.1561 31.8379 55.4124ZM49.0879 53.4936C49.2129 53.663 49.3379 53.9562 49.4441 54.3186C49.5691 54.7687 49.6566 55.2687 49.7191 55.6686C47.0754 57.1561 44.0629 57.9436 41.0004 57.9436C38.0066 57.9436 35.0441 57.1811 32.4254 55.7499C32.4629 55.4062 32.5379 54.8749 32.6629 54.3811C32.7691 53.9374 32.9066 53.5936 33.0566 53.3874C33.1566 53.2499 33.1254 53.0499 32.9816 52.9499C32.8441 52.8499 32.6441 52.8818 32.5441 53.0249C32.4004 53.2311 32.2691 53.5124 32.1566 53.8693L28.7879 52.2568C29.3254 49.7749 30.2754 48.9124 31.5379 48.4749C31.6316 48.5686 31.7129 48.6443 31.7941 48.713C31.9191 49.1818 32.1754 49.6436 32.5754 50.1005C32.8816 50.4505 33.1629 50.6624 33.1754 50.6755C33.7248 50.8986 33.6629 50.1005 33.6629 50.1005C34.2629 50.5561 34.9941 50.563 35.0379 50.563C35.1941 50.563 35.3254 50.4499 35.3441 50.3005C35.3691 50.1443 35.2816 50.0005 35.1316 49.9499C34.8629 49.8686 34.7004 49.7561 34.6316 49.6061C34.4816 49.2624 34.7566 48.6374 35.0566 47.9749L35.1379 47.7811H35.1441C35.1691 49.7374 35.5629 52.6561 37.5816 53.4936C38.8941 54.0374 40.2441 54.3061 41.4566 54.3061C42.8254 54.3061 44.0191 53.9687 44.7879 53.2936C46.2941 51.9811 46.9566 50.0505 46.7754 47.5693C46.8129 47.5755 46.8504 47.5818 46.8879 47.5874C47.0566 48.1624 47.2379 48.6499 47.3254 48.8755C47.2504 49.0187 47.1004 49.2943 46.8129 49.763C46.7504 49.8755 46.7566 50.0124 46.8316 50.113C46.8941 50.1943 46.9879 50.238 47.0816 50.238C47.1129 50.238 47.1379 50.2318 47.1691 50.2255C47.8691 50.0255 48.4566 49.6936 48.9254 49.2499C49.4816 49.0936 49.9441 48.8311 50.3004 48.4686C51.9191 49.2068 52.8691 50.4499 53.2879 52.3561L49.9379 53.8061C49.8316 53.5249 49.7191 53.2936 49.5879 53.1187C49.4879 52.9805 49.2941 52.9493 49.1504 53.0555C49.0129 53.1561 48.9816 53.3561 49.0879 53.4936ZM50.3816 44.4874C50.5066 44.8068 50.8629 46.3624 50.2566 47.5124C50.1004 47.8068 49.8941 48.0499 49.6316 48.2443C49.6754 48.1505 49.7691 47.9568 49.7691 47.9568C49.936 47.4711 49.2623 47.4224 49.2004 47.7068C49.1941 47.713 49.0666 48.1449 48.5441 48.7568C48.3516 48.9818 48.0879 49.1443 47.8129 49.2943C47.9129 49.113 47.9504 49.0318 47.9504 49.0255C47.9879 48.9505 47.9941 48.8561 47.9566 48.7755C47.9566 48.7693 47.6691 48.0568 47.4316 47.2318C47.2316 46.5005 47.1379 45.9499 47.1504 45.5561C47.1566 45.0812 47.3254 44.3499 47.5066 43.5686C47.5941 43.1624 47.6879 42.7561 47.7691 42.3499C48.4129 43.8061 49.2879 45.2624 49.3316 45.3374C49.6235 45.5955 49.9654 45.3712 49.8691 45.0118C49.8566 44.9937 48.4941 42.7249 47.9379 41.0743C47.8004 40.6618 47.7254 40.318 47.7129 40.068C47.6754 39.0493 47.5879 37.4368 47.4691 36.2368C47.4316 35.793 47.3629 35.193 47.2629 34.8555C47.1191 34.3805 46.9754 33.2743 46.8754 32.543C46.8441 32.2868 46.7316 31.5743 46.7129 31.4493C46.4879 29.868 46.0816 27.6993 45.0941 27.0993C44.9441 27.0118 44.7566 27.0555 44.6629 27.2055C44.5754 27.3555 44.6191 27.543 44.7691 27.6368C45.3316 27.9743 45.7754 29.2868 46.0941 31.5368C46.1066 31.6118 46.1129 31.6743 46.1191 31.7243C45.9754 31.7555 45.8254 31.793 45.7066 31.8243C45.6379 31.6305 45.5629 31.2243 45.5254 30.843C45.5066 30.6805 45.3816 30.5618 45.2066 30.5618C45.0441 30.568 44.9129 30.693 44.9004 30.8555C44.8816 31.1555 44.8191 31.7243 44.7379 31.9368C44.6379 32.043 44.0379 32.1055 43.4754 32.0368C43.3441 31.9368 43.1129 31.2743 43.0004 30.643C42.9754 30.4805 42.8191 30.368 42.6629 30.3868C42.4941 30.4055 42.3754 30.5493 42.3816 30.7118C42.3816 30.718 42.4004 31.593 41.9754 32.1243C41.9379 32.168 41.4754 32.5868 37.4629 32.0118C37.3816 31.968 37.1129 31.393 37.4004 29.293C37.4129 29.1868 37.3754 29.0868 37.3004 29.018C37.2191 28.9493 37.1191 28.918 37.0129 28.943C36.6629 29.0305 36.4316 29.5118 36.0379 32.0305V32.0493C35.8191 32.043 35.5629 31.9805 35.2879 31.893C35.5816 28.6493 36.6879 27.6618 36.7129 27.643C36.8441 27.5305 36.8629 27.3368 36.7566 27.2055C36.6504 27.068 36.4504 27.0493 36.3191 27.1555C36.2629 27.1993 34.9191 28.3243 34.6379 32.0868C34.6004 32.6243 34.5816 33.193 34.5879 33.7618C34.5441 35.3118 34.4379 36.7805 34.2691 38.1305C34.1566 39.0368 34.0129 39.8805 33.8379 40.6368C33.8379 40.6437 33.8379 40.6555 33.8316 40.6749C33.5254 41.9812 33.2816 42.1937 33.2691 42.1993C32.8879 42.5187 32.1504 43.5493 31.7816 44.8312C31.6129 44.5311 31.4629 44.168 31.4191 43.7868C31.3441 43.1368 31.7941 42.0187 32.1566 41.118C32.4004 40.5055 32.6129 39.9868 32.6816 39.6055C32.7504 39.2118 32.7504 38.2993 32.7504 37.243C32.7504 35.893 32.7504 33.8555 32.9566 33.4618C33.0379 33.3118 32.9816 33.1243 32.8316 33.043C32.6816 32.9618 32.4879 33.018 32.4066 33.168C32.1441 33.6618 32.1254 35.0993 32.1254 37.243C32.1254 38.2305 32.1254 39.1555 32.0629 39.493C32.0066 39.8118 31.8004 40.3305 31.5754 40.8805C31.2254 41.7618 30.8316 42.7424 30.7879 43.5118C30.4879 42.8868 30.0566 41.7993 30.2754 40.868C30.4191 40.2493 31.7004 36.1937 31.9441 35.0055C31.9941 34.7618 32.0441 34.4868 32.1004 34.1805C32.5129 31.943 33.1941 28.1993 35.6379 26.4243C38.4566 24.3618 40.0629 25.1055 40.4879 25.3805C40.6191 25.468 40.7691 25.4743 40.8691 25.3493C41.0691 25.2118 43.4816 24.543 45.8316 26.4618C48.1754 28.3743 48.5566 30.293 48.8629 31.8368C48.8629 31.8368 49.0254 32.718 49.1004 33.1368C49.4191 34.968 49.9004 37.7368 50.8191 39.543C51.2754 40.8555 51.3254 42.8118 50.4129 44.2055C50.3566 44.2874 50.3441 44.3937 50.3816 44.4874ZM46.7129 46.9186C46.6504 46.9055 46.5816 46.8937 46.5254 46.8749C45.4254 46.5436 44.9504 44.9749 44.7504 43.7936C44.8941 43.7055 45.0379 43.5993 45.1754 43.4937C46.0004 42.8561 46.6629 41.9561 47.2004 40.7874C47.2316 40.9124 47.2754 41.0568 47.3191 41.1999C47.2441 41.8936 47.0691 42.6749 46.8941 43.4312C46.7129 44.2437 46.5379 45.0061 46.5254 45.5436C46.5191 45.8999 46.5816 46.3561 46.7129 46.9186ZM35.0379 43.1187L34.9879 42.8749C34.8379 42.1124 34.5879 41.2061 34.4566 40.7311C34.5316 40.4124 34.5941 40.0749 34.6566 39.7311C35.1816 40.8937 36.0504 42.4562 37.2316 43.4749C37.0254 44.5062 36.5004 46.3755 35.3629 47.0061C35.5629 45.7999 35.2566 44.2249 35.0379 43.1187ZM34.8254 38.6624C34.8441 38.5062 35.1691 35.3499 35.2129 33.7687C35.2066 33.3437 35.2191 32.9374 35.2379 32.5437C35.6566 32.6624 36.0254 32.6999 36.3504 32.6499C36.4816 32.6312 36.5879 32.5312 36.6129 32.4062C36.6191 32.3624 36.6941 31.8812 36.7129 31.7687C36.8691 32.5499 37.2379 32.6062 37.4316 32.6374C38.9504 32.8562 40.0066 32.9374 40.7441 32.9374C41.9066 32.9374 42.2879 32.7312 42.4629 32.5124C42.5816 32.3624 42.6754 32.1999 42.7504 32.0312C42.9004 32.3624 43.1004 32.6062 43.3504 32.6437C43.6191 32.6749 44.8816 32.8187 45.2504 32.2937C45.2941 32.3437 45.3316 32.3812 45.3691 32.4124C45.4754 32.4812 45.5879 32.4999 45.7004 32.4687C45.8066 32.4437 46.0129 32.3937 46.2191 32.3437C46.2316 32.4312 46.2441 32.5187 46.2566 32.6249C46.3629 33.4187 46.5066 34.5124 46.6629 35.0311C46.7316 35.2562 46.7941 35.7124 46.8441 36.2937C46.9441 37.2562 47.0191 38.4749 47.0629 39.4437L47.0566 39.4499C47.0566 39.4562 47.0566 39.4624 47.0504 39.4749C46.4941 41.0936 45.7566 42.2493 44.7879 43.0055C44.7441 43.0374 44.7004 43.0743 44.6566 43.0993C44.4691 43.243 44.2754 43.3618 44.0691 43.4743C42.8316 44.1311 41.2754 44.2305 39.1691 43.8055C38.6754 43.7055 38.1941 43.4618 37.7379 43.0805C36.3441 41.9493 35.0729 39.1499 34.9191 38.7618C34.9004 38.7374 34.8316 38.6624 34.8254 38.6624ZM37.7941 43.8999C38.1941 44.1562 38.6129 44.3305 39.0441 44.4186C39.7316 44.5561 40.5504 44.6812 41.4066 44.6812C42.3191 44.6812 43.2754 44.5374 44.1754 44.1124C44.4191 45.3749 44.9566 46.8749 46.1316 47.3805C46.3629 49.768 45.7754 51.6061 44.3754 52.8243C43.1129 53.9249 40.3566 53.968 37.8191 52.918C35.9754 52.1499 35.7629 48.9743 35.7691 47.4743C37.0191 46.7124 37.5629 45.0312 37.7941 43.8999ZM31.0191 44.7124C31.0191 44.7062 31.0191 44.7062 31.0191 44.6993C31.1941 45.1187 31.4191 45.468 31.6004 45.7055C31.5504 46.1118 31.541 46.4862 31.5816 46.843C31.6254 47.2255 32.2504 47.3136 32.2066 46.768C32.1798 46.4286 32.2316 45.6555 32.2316 45.6493C32.4566 44.193 33.3379 42.9555 33.6691 42.6868C33.8254 42.5555 33.9816 42.2868 34.1254 41.893C34.2129 42.243 34.3004 42.6243 34.3754 42.9993L34.4254 43.2368C34.6691 44.4618 35.0316 46.3055 34.6379 47.3624C34.6191 47.3936 34.4816 47.7249 34.4816 47.7249C34.1879 48.3811 33.9129 49.0061 33.9754 49.5368C33.8254 49.3993 33.6879 49.218 33.6129 48.9749C33.5629 48.8249 33.4129 48.7305 33.2566 48.7618C33.1066 48.7868 32.9941 48.9249 33.0004 49.0811L33.0191 49.6624C32.6754 49.2624 32.4566 48.8624 32.3691 48.4686C32.3691 48.4686 32.2754 48.3062 32.2691 48.3062C31.9316 48.0061 31.3129 47.4124 30.9879 46.8061C30.6754 46.2374 30.9004 45.2437 31.0191 44.7124ZM50.3004 55.3311C50.2504 55.0436 50.1879 54.7243 50.1129 54.4118L53.3254 53.0243C52.3941 53.9062 51.3754 54.6811 50.3004 55.3311ZM53.9441 52.4124C53.5254 50.2811 52.4566 48.8249 50.7004 47.9686C50.7316 47.9124 50.7816 47.8624 50.8129 47.7999C51.4629 46.568 51.1879 45.0055 51.0191 44.4186C51.9629 42.8624 51.9004 40.7562 51.3941 39.2999C50.5004 37.5374 50.0316 34.8249 49.7129 33.0312C49.6379 32.6062 49.5754 32.2249 49.5129 31.9249L49.4754 31.7124C49.1691 30.1624 48.7441 28.0374 46.2316 25.9749C44.3816 24.4687 42.5441 24.4187 41.6129 24.5249C41.4879 24.5374 40.9816 24.6062 40.6504 24.7562C39.9566 24.3874 38.1254 23.8312 35.2691 25.9187C32.6254 27.8437 31.9498 31.7443 31.4879 34.0687C31.3391 34.818 29.8191 40.0812 29.6691 40.7249C29.3441 42.0999 30.1254 43.6055 30.4191 44.1686C30.4441 44.2124 30.4379 44.4436 30.4066 44.5749C30.2629 45.2311 30.0191 46.3249 30.4379 47.0999C30.6066 47.4186 30.8379 47.718 31.0754 47.9937C29.4754 48.6499 28.6004 49.9499 28.1254 52.3686C28.1191 52.3999 28.1129 52.4374 28.1066 52.4686C24.8504 49.1061 23.0566 44.7062 23.0566 39.9999C23.0566 30.1062 31.1066 22.0562 41.0004 22.0562C50.8941 22.0562 58.9441 30.1062 58.9441 39.9999C58.9441 44.6811 57.1691 49.0624 53.9441 52.4124Z" fill="white"/>
</g>
<defs>
<clipPath id="clip0_1040_13289">
<rect x="0.5" width="80" height="80" rx="40" fill="white"/>
</clipPath>
</defs>
</svg>
