<svg
          width="81"
          height="80"
          viewBox="0 0 81 80"
          fill="none"
          xmlns="http://www.w3.org/2000/svg"
        >
          <g clip-path="url(#clip0_1040_13286)">
            <rect x="0.5" width="80" height="80" rx="40" fill="#23293E" />
            <path
              d="M41.0007 58.0009C36.1923 58.0009 31.6718 56.1285 28.2721 52.7285C24.8723 49.3285 23 44.8083 23 40.0001C23 35.1924 24.8723 30.6721 28.272 27.2721C31.672 23.8718 36.1924 21.9993 41.0006 21.9993C50.9255 21.9993 59 30.0744 59 40.0001C59 44.8081 57.1276 49.3284 53.7277 52.7285C50.3278 56.1284 45.808 58.0009 41.0007 58.0009ZM41.0007 22.6281C31.4218 22.6281 23.6288 30.4212 23.6288 40.0001C23.6288 49.5789 31.4218 57.372 41.0006 57.372C50.5787 57.372 58.3711 49.5789 58.3711 40.0001C58.3711 30.4212 50.5787 22.6281 41.0007 22.6281Z"
              fill="white"
            />
            <path
              d="M41.0015 58.0008C39.5803 58.0008 38.1553 57.8307 36.7659 57.4953C36.6248 57.4612 36.5254 57.3348 36.5254 57.1896V57.1661C36.5254 54.6979 38.5328 52.6899 41.0002 52.6899C43.4684 52.6899 45.4764 54.6979 45.4764 57.1661C45.4764 57.1776 45.4757 57.1901 45.4746 57.2028C45.4688 57.3424 45.3712 57.4621 45.2344 57.4952C43.8479 57.8307 42.4237 58.0008 41.0015 58.0008ZM37.1606 56.9417C39.6872 57.5131 42.3215 57.5126 44.841 56.9415C44.7244 54.9241 43.0462 53.3187 41.0001 53.3187C38.9547 53.3187 37.277 54.9243 37.1606 56.9417Z"
              fill="white"
            />
            <path
              d="M35.8869 38.1668C35.8045 38.1668 35.7242 38.1344 35.6645 38.0747L34.6252 37.0346C34.5663 36.9756 34.5332 36.8958 34.5332 36.8124V33.2377C34.5332 31.0564 36.3071 29.2819 38.4874 29.2819C40.3008 29.2819 42.0081 28.5758 43.2947 27.2936C43.3847 27.204 43.5198 27.1772 43.6372 27.2259C43.7546 27.2746 43.831 27.3891 43.831 27.5163C43.831 28.1515 43.6493 28.7603 43.3103 29.2831L43.5114 29.2834C45.6918 29.2834 47.4665 31.0573 47.4666 33.2378V36.8125C47.4666 36.8959 47.4335 36.9759 47.3745 37.0348L46.3336 38.0749C46.2558 38.1527 46.1427 38.1842 46.036 38.1577C45.9291 38.1314 45.8439 38.051 45.8111 37.9459L45.0085 35.3666C43.8896 36.3185 42.4839 36.8375 40.9984 36.8375C39.5134 36.8375 38.1081 36.3189 36.9895 35.3675L36.187 37.9459C36.1543 38.0511 36.069 38.1314 35.9621 38.1578C35.9372 38.1639 35.9119 38.1668 35.8869 38.1668ZM45.161 34.4837C45.186 34.4837 45.2114 34.4867 45.2362 34.4928C45.3431 34.5191 45.4284 34.5995 45.4612 34.7047L46.2571 37.2623L46.8379 36.682V33.2376C46.8377 31.4039 45.3451 29.9121 43.5108 29.9121L42.6543 29.9107C42.5274 29.9105 42.413 29.8339 42.3644 29.7167C42.3159 29.5993 42.3426 29.4643 42.4322 29.3744C42.7305 29.0748 42.9483 28.7171 43.0746 28.3275C41.7698 29.3538 40.1705 29.9107 38.4874 29.9107C36.6538 29.9107 35.162 31.4031 35.162 33.2376V36.6822L35.7414 37.2619L36.5372 34.7047C36.5834 34.5563 36.731 34.4638 36.8846 34.4872C36.9618 34.4989 37.0287 34.538 37.0763 34.5937C38.1263 35.6352 39.5182 36.2084 40.9984 36.2084C42.487 36.2084 43.8863 35.6286 44.9386 34.5759C44.9982 34.5161 45.0786 34.4837 45.161 34.4837Z"
              fill="white"
            />
            <path
              d="M40.9989 47.6357C38.5643 47.6357 36.3707 45.5907 35.2403 42.2834C34.0531 42.0693 33.1523 40.5782 33.1523 38.7549C33.1523 37.7587 33.7844 36.8635 34.727 36.5224C34.7271 36.5223 34.7271 36.5223 34.7271 36.5223C34.8447 36.4737 34.9799 36.5002 35.0699 36.5901L35.7411 37.262L36.537 34.7047C36.5831 34.5563 36.7307 34.4638 36.8844 34.4873C36.9615 34.4989 37.0285 34.5381 37.0762 34.5937C38.1263 35.6353 39.5181 36.2085 40.9983 36.2085C42.4869 36.2085 43.8862 35.6286 44.9383 34.5759C45.0162 34.498 45.1295 34.4665 45.2359 34.4929C45.3429 34.5192 45.4282 34.5996 45.461 34.7047L46.257 37.2624L46.9299 36.59C47.0155 36.5042 47.143 36.4754 47.2575 36.5161C48.2075 36.8544 48.8457 37.7541 48.8455 38.755C48.8455 40.5781 47.9449 42.0701 46.7576 42.2854C45.6267 45.5913 43.4331 47.6357 40.9989 47.6357ZM34.7742 37.1838C34.1732 37.4739 33.7811 38.0833 33.7811 38.7549C33.7811 40.326 34.5475 41.6381 35.4893 41.68C35.6203 41.6857 35.7339 41.7723 35.7743 41.8969C36.7975 45.0489 38.7994 47.0069 40.9989 47.0069C43.198 47.0069 45.2 45.0497 46.2235 41.8991C46.2639 41.7745 46.3774 41.6881 46.5083 41.6821C47.4502 41.6391 48.2166 40.3259 48.2166 38.7549C48.2167 38.0837 47.8255 37.4743 47.2254 37.1833L46.3335 38.0747C46.2556 38.1525 46.1431 38.1839 46.0359 38.1575C45.929 38.1312 45.8438 38.0509 45.811 37.9457L45.0083 35.3664C43.8895 36.3183 42.4839 36.8373 40.9983 36.8373C39.5132 36.8373 38.1079 36.3188 36.9893 35.3673L36.1868 37.9457C36.1541 38.0509 36.0687 38.1312 35.9619 38.1576C35.855 38.1837 35.742 38.1525 35.6642 38.0745L34.7742 37.1838Z"
              fill="white"
            />
            <path
              d="M40.9984 51.6884C39.4576 51.6884 38.0093 51.0886 36.9202 49.9997C36.846 49.9254 36.8137 49.819 36.8342 49.716C36.8546 49.613 36.9252 49.527 37.0222 49.4869C37.3095 49.3679 37.5656 49.1972 37.7833 48.9794C38.226 48.5379 38.4697 47.949 38.4697 47.3209V46.6765C38.4697 46.5631 38.5308 46.4584 38.6295 46.4026C38.7282 46.347 38.8494 46.3486 38.9465 46.4073C39.6066 46.8053 40.2971 47.0072 40.9991 47.0072C41.7024 47.0072 42.3929 46.8054 43.0512 46.4074C43.1484 46.3486 43.2695 46.347 43.3683 46.4026C43.4672 46.4582 43.5283 46.563 43.5283 46.6765V47.321C43.5283 47.9483 43.7725 48.5371 44.2158 48.9792C44.4317 49.1964 44.6873 49.367 44.9762 49.4871C45.073 49.5274 45.1434 49.6134 45.1638 49.7163C45.1843 49.8194 45.1519 49.9256 45.0777 49.9998C43.9879 51.0886 42.5393 51.6884 40.9984 51.6884ZM37.6872 49.8514C38.6123 50.6334 39.7726 51.0596 40.9985 51.0596C42.2246 51.0596 43.3851 50.6334 44.311 49.8512C44.1142 49.7302 43.9335 49.5872 43.7708 49.4235C43.2092 48.8637 42.8994 48.1166 42.8994 47.321V47.2015C42.2857 47.4901 41.6486 47.636 40.999 47.636C40.3504 47.636 39.7132 47.4901 39.0985 47.2011V47.3209C39.0985 48.1174 38.7892 48.8645 38.2276 49.4244C38.0639 49.588 37.883 49.7309 37.6872 49.8514Z"
              fill="white"
            />
            <path
              d="M41.0002 58.0009C39.579 58.0009 38.154 57.8307 36.7647 57.4953C33.8508 56.7923 31.1333 55.3533 28.906 53.3341C28.8261 53.2617 28.7889 53.1534 28.8074 53.0473C28.8258 52.9412 28.8973 52.8518 28.9968 52.8106L37.0221 49.4868C37.1397 49.4382 37.2748 49.465 37.3648 49.555C38.3351 50.5252 39.6255 51.0595 40.9983 51.0595C42.3712 51.0595 43.662 50.5252 44.633 49.5549C44.723 49.465 44.8582 49.4383 44.9755 49.4868L53.0008 52.8106C53.1003 52.8518 53.1718 52.9411 53.1902 53.0472C53.2087 53.1533 53.1716 53.2615 53.0918 53.3339C50.8676 55.3524 48.1501 56.7914 45.2329 57.4953C43.8465 57.8307 42.4224 58.0009 41.0002 58.0009ZM29.7035 53.1985C31.7799 54.9741 34.262 56.2445 36.9121 56.8839C39.5954 57.5319 42.4099 57.5313 45.0851 56.884C47.7385 56.2438 50.2207 54.9734 52.2943 53.1986L44.9251 50.1465C43.8544 51.1424 42.4683 51.6882 40.9982 51.6882C39.5282 51.6882 38.1423 51.1424 37.0724 50.1465L29.7035 53.1985Z"
              fill="white"
            />
          </g>
          <defs>
            <clipPath id="clip0_1040_13286">
              <rect x="0.5" width="80" height="80" rx="40" fill="white" />
            </clipPath>
          </defs>
        </svg>